# xmcd CD database file
#
# Track frame offsets:
#	150
#	15029
#	35964
#	47604
#	79372
#	103769
#	127727
#	141250
#	180463
#	207926
#	227354
#
# Disc length: 3429 seconds
#
# Revision: 0
# Processed by: cddbd v1.5.1PL2 Copyright (c) Steve Scherf et al.
# Submitted via: CDex 1.51
#
DISCID=860d630b
DTITLE=IUP Jazz Band - Back Home Again
DYEAR=2002
DGENRE=Jazz
TTITLE0=Take the A Train
TTITLE1=Talk
TTITLE2=Basic Straight Ahead
TTITLE3=Computer
TTITLE4=Every Summer Night
TTITLE5=Caravan
TTITLE6=Back Home Again in Indiana
TTITLE7=On the Corner
TTITLE8=Centri-Fusion
TTITLE9=Ruby, My Dear
TTITLE10=Madly
EXTD=YEAR: 2002
EXTT0=
EXTT1=
EXTT2=
EXTT3=
EXTT4=
EXTT5=
EXTT6=
EXTT7=
EXTT8=
EXTT9=
EXTT10=
PLAYORDER=
